<svg width="59" height="285" viewBox="0 0 59 285" fill="none" xmlns="http://www.w3.org/2000/svg">
<path d="M50.8788 1.59396C50.6545 0.796461 49.8262 0.331752 49.0287 0.556003L36.0327 4.21038C35.2352 4.43463 34.7705 5.26292 34.9948 6.06042C35.219 6.85792 36.0473 7.32262 36.8448 7.09837L48.3968 3.85004L51.6451 15.402C51.8694 16.1995 52.6977 16.6642 53.4952 16.44C54.2927 16.2157 54.7574 15.3874 54.5331 14.5899L50.8788 1.59396ZM57 284L58.2095 283.113L40.8104 259.394L39.6009 260.281L38.3914 261.168L55.7905 284.887L57 284ZM4.99013 111.675L6.46715 111.937L7.69274 105.015L6.21572 104.753L4.73869 104.492L3.5131 111.414L4.99013 111.675ZM31.5434 33.8894L32.8515 34.6234L50.7429 2.73395L49.4348 2L48.1266 1.26605L30.2352 33.1555L31.5434 33.8894ZM6.21572 104.753L7.69274 105.015C12.0678 80.305 20.573 56.5084 32.8515 34.6234L31.5434 33.8894L30.2352 33.1555C17.7919 55.3343 9.1725 79.4503 4.73869 104.492L6.21572 104.753ZM39.6009 260.281L40.8104 259.394C23.3608 235.606 11.6107 208.126 6.46715 179.077L4.99012 179.338L3.5131 179.6C8.73676 209.102 20.6699 237.01 38.3914 261.168L39.6009 260.281ZM4.99012 179.338L6.46715 179.077C2.53518 156.869 2.53518 134.144 6.46715 111.937L4.99013 111.675L3.5131 111.414C-0.480133 133.967 -0.480135 157.046 3.5131 179.6L4.99012 179.338Z" fill="white"/>
</svg>
