<svg width="227" height="46" viewBox="0 0 227 46" fill="none" xmlns="http://www.w3.org/2000/svg">
<path d="M0.726848 6.03804C0.195566 6.1889 -0.112829 6.74189 0.0380292 7.27317L2.4964 15.9309C2.64726 16.4622 3.20024 16.7706 3.73152 16.6197C4.26281 16.4689 4.5712 15.9159 4.42034 15.3846L2.23512 7.68883L9.93089 5.50361C10.4622 5.35276 10.7706 4.79977 10.6197 4.26849C10.4688 3.73721 9.91587 3.42881 9.38458 3.57967L0.726848 6.03804ZM25.8638 20.8663L25.3767 21.7397L25.8638 20.8663ZM226 1L225.411 0.191992L206.565 13.9339L207.154 14.7419L207.743 15.5499L226.589 1.80801L226 1ZM88.5352 42.2542L88.7085 41.2693L83.774 40.4008L83.6006 41.3857L83.4273 42.3706L88.3619 43.2391L88.5352 42.2542ZM25.8638 20.8663L26.3508 19.993L1.48707 6.12665L1 7.00002L0.512932 7.87338L25.3767 21.7397L25.8638 20.8663ZM83.6006 41.3857L83.774 40.4008C63.627 36.855 44.2169 29.9568 26.3508 19.993L25.8638 20.8663L25.3767 21.7397C43.438 31.8124 63.0602 38.786 83.4273 42.3706L83.6006 41.3857ZM207.154 14.7419L206.565 13.9339C187.507 27.8304 165.521 37.1809 142.291 41.2693L142.465 42.2542L142.638 43.2391C166.168 39.0978 188.438 29.6262 207.743 15.5499L207.154 14.7419ZM142.465 42.2542L142.291 41.2693C124.567 44.3889 106.433 44.3889 88.7085 41.2693L88.5352 42.2542L88.3619 43.2391C106.316 46.399 124.684 46.399 142.638 43.2391L142.465 42.2542Z" fill="white"/>
</svg>
